<svg xmlns="http://www.w3.org/2000/svg" version="1.1" xmlns:xlink="http://www.w3.org/1999/xlink" xmlns:svgjs="http://svgjs.dev/svgjs" width="2000" height="1500" viewBox="0 0 2000 1500"><rect width="2000" height="1500" fill="#ffffff"></rect><g transform="matrix(0.75,0,0,0.75,249.090909090909,575.7818846240867)"><svg viewBox="0 0 396 92" data-background-color="#ffffff" preserveAspectRatio="xMidYMid meet" height="464" width="2000" xmlns="http://www.w3.org/2000/svg" xmlns:xlink="http://www.w3.org/1999/xlink"><g id="tight-bounds" transform="matrix(1,0,0,1,0.2400000000000091,0.05766268558627985)"><svg viewBox="0 0 395.52 91.88467462882744" height="91.88467462882744" width="395.52"><g><svg viewBox="0 0 599.5433335203641 139.28206949433965" height="91.88467462882744" width="395.52"><g transform="matrix(1,0,0,1,204.02333352036408,35.126317766037744)"><svg viewBox="0 0 395.52 69.02943396226416" height="69.02943396226416" width="395.52"><g id="textblocktransform"><svg viewBox="0 0 395.52 69.02943396226416" height="69.02943396226416" width="395.52" id="textblock"><g><svg viewBox="0 0 395.52 69.02943396226416" height="69.02943396226416" width="395.52"><g transform="matrix(1,0,0,1,0,0)"><svg width="395.52" viewBox="1.35 -36.3 211.98000000000002 37" height="69.02943396226416" data-palette-color="url(#df532342-990c-4432-a114-0982681b06ea)"></svg></g></svg></g></svg></g></svg></g><g><svg viewBox="0 0 187.72714086828861 139.28206949433965" height="139.28206949433965" width="187.72714086828861"><g><svg xmlns="http://www.w3.org/2000/svg" xmlns:xlink="http://www.w3.org/1999/xlink" version="1.1" x="0" y="0" viewBox="5.132408955589326 16.710673764624296 89.73559104441067 66.5783262353757" enable-background="new 0 0 100 100" xml:space="preserve" height="139.28206949433965" width="187.72714086828861" class="icon-icon-0" data-fill-palette-color="accent" id="icon-0"><g fill="#ff5769" data-fill-palette-color="accent"><g fill="#ff5769" data-fill-palette-color="accent"><path fill-rule="evenodd" clip-rule="evenodd" d="M74.326 68.963c-0.798-0.145-1.9-0.323-2.992-0.555-0.341-0.071-0.667-0.255-0.974-0.432-1.325-0.767-1.746-1.954-0.93-3.247 0.693-1.103 1.573-2.117 2.501-3.037 1.594-1.582 3.297-3.057 4.94-4.588 4.552-4.241 7.812-9.313 9.824-15.2 0.328-0.958 0.706-1.908 1.158-2.812 0.898-1.788 2-1.927 3.344-0.457 1.32 1.445 2.083 3.202 2.522 5.069 1.868 7.964-0.336 14.692-6.371 20.143-2.905 2.626-6.373 4.208-10.25 4.836C76.294 68.814 75.471 68.851 74.326 68.963z" fill="#ff5769" data-fill-palette-color="accent"></path><path fill-rule="evenodd" clip-rule="evenodd" d="M92.634 38.514c-0.653-1.049-1.292-2.153-2.012-3.201-0.739-1.076-1.61-2.049-2.715-2.778-1.506-0.995-2.472-0.662-2.837 1.085-0.302 1.443-0.484 2.917-0.636 4.387-0.803 7.851-4.379 14.12-10.652 18.884-3.111 2.361-6.535 4.188-9.985 5.977-1.898 0.982-3.829 1.915-5.486 3.297-0.393 0.328-0.756 0.713-1.059 1.125-0.763 1.045-0.708 2.198 0.128 3.191 1.074 1.28 2.537 1.934 4.071 2.445 2.922 0.974 5.939 1.181 8.983 0.946 4.886-0.38 9.429-1.859 13.513-4.59 5.735-3.835 9.416-9.074 10.688-15.92 0.022-0.119 0.062-0.233 0.094-0.349 0.047 0.01 0.093 0.02 0.139 0.029-0.181 0.872-0.324 1.753-0.547 2.613-2.235 8.58-7.57 14.593-15.453 18.412-5.266 2.551-10.866 3.581-16.712 3.264-3.956-0.216-7.766-1.03-11.323-2.828-1.505-0.76-2.909-1.677-3.968-3.024-0.655-0.834-1.134-1.74-0.875-2.858 0.202-0.87 0.787-1.468 1.482-1.96 1.446-1.021 3.11-1.567 4.779-2.079 3.403-1.045 6.838-1.997 10.215-3.117 3.978-1.317 7.716-3.146 11.027-5.763 4.653-3.679 7.529-8.396 8.347-14.309 0.316-2.291 0.267-4.588 0.09-6.89-0.128-1.651-0.202-3.308-0.271-4.962-0.012-0.289 0.091-0.601 0.205-0.875 0.252-0.599 0.808-0.91 1.45-0.637 0.891 0.377 1.806 0.802 2.549 1.404 3.007 2.436 5.117 5.572 6.777 9.031C92.651 38.49 92.632 38.53 92.634 38.514z" fill="#ff5769" data-fill-palette-color="accent"></path><path fill-rule="evenodd" clip-rule="evenodd" d="M43.539 16.952c-1.064 0.275-2.123 0.514-3.159 0.832-0.556 0.169-1.102 0.425-1.59 0.738-0.281 0.179-0.594 0.55-0.597 0.837-0.001 0.221 0.426 0.553 0.723 0.647 0.964 0.307 1.947 0.575 2.939 0.775 4.686 0.946 9.3 2.127 13.712 4.012 5.238 2.238 9.98 5.27 14.37 8.877 0.411 0.338 0.821 0.678 1.19 1.075-1.092-0.709-2.184-1.42-3.275-2.129-4.513-2.929-9.213-5.479-14.349-7.164-5.083-1.667-10.277-2.512-15.63-2.206-2.663 0.152-5.274 0.613-7.754 1.648-4.807 2.005-7.589 5.706-8.757 10.675-1.146 4.878-0.354 9.594 1.414 14.196 0.062 0.159 0.12 0.32 0.18 0.48-0.048 0.021-0.096 0.042-0.143 0.062-0.599-1.321-1.237-2.628-1.789-3.97-1.365-3.326-2.043-6.811-2.353-10.381-0.086-1.01-0.214-2.024-0.43-3.013-0.267-1.221-0.986-1.602-2.189-1.245-1.295 0.385-2.363 1.169-3.342 2.059-3.771 3.432-5.965 7.731-6.772 12.729-1.026 6.351 0.45 12.201 3.736 17.652 0.108 0.182 0.216 0.36 0.263 0.589-0.053-0.064-0.112-0.125-0.158-0.194-2.564-3.895-4.199-8.132-4.564-12.798-0.51-6.521 1.353-12.361 5.282-17.558 2.842-3.758 6.466-6.62 10.478-9.019 4.056-2.426 8.189-4.7 12.683-6.241 3.086-1.059 6.281-1.576 9.505-1.965C43.285 16.939 43.411 16.952 43.539 16.952z" fill="#ff5769" data-fill-palette-color="accent"></path><path fill-rule="evenodd" clip-rule="evenodd" d="M61.55 61.343c-2.16 0.432-4.308 0.96-6.484 1.273-3.546 0.512-7.112 0.87-10.667 1.316-1.714 0.217-3.426 0.478-5.038 1.151-2.632 1.103-3.239 3.024-1.707 5.444 1.121 1.772 2.715 3.062 4.453 4.177 3.482 2.239 7.323 3.559 11.365 4.323 3.829 0.723 7.688 0.867 11.56 0.423 6.403-0.734 12.298-2.837 17.522-6.675 0.137-0.102 0.28-0.188 0.421-0.283 0.027 0.041 0.057 0.079 0.085 0.119-0.994 0.725-1.971 1.477-2.987 2.169-4.866 3.32-10.242 5.348-16.062 6.188-8.425 1.216-16.525 0.121-24.223-3.575-3.16-1.518-6.029-3.465-8.351-6.133-1.098-1.261-2.023-2.628-2.404-4.294-0.399-1.745 0.25-3.111 1.865-3.873 1.1-0.519 2.284-0.745 3.479-0.742 2.764 0.002 5.529 0.042 8.29 0.152 4.246 0.17 8.493 0.326 12.723-0.194 2.06-0.255 4.099-0.687 6.146-1.039C61.541 61.295 61.546 61.319 61.55 61.343z" fill="#ff5769" data-fill-palette-color="accent"></path><path fill-rule="evenodd" clip-rule="evenodd" d="M65.631 81.426c-1.752 0.377-3.496 0.797-5.258 1.123-4.186 0.775-8.406 0.904-12.628 0.417-8.404-0.967-16.037-3.862-22.574-9.342-3.041-2.547-5.567-5.528-7.092-9.246-0.675-1.647-1.105-3.351-0.79-5.159 0.323-1.852 1.667-3.017 3.546-3.101 1.593-0.071 3.128 0.24 4.623 0.725 3.147 1.024 6.268 2.136 9.419 3.148 2.197 0.705 4.428 1.307 6.489 1.908-1.008-0.179-2.186-0.391-3.364-0.598-2.822-0.501-5.641-1.03-8.47-1.488-1.357-0.22-2.733-0.254-4.098 0.041-2.114 0.458-3.188 2.023-2.868 4.176 0.316 2.126 1.326 3.934 2.604 5.604 2.893 3.78 6.67 6.446 10.891 8.527 4.302 2.122 8.855 3.419 13.616 3.999 5.237 0.636 10.424 0.396 15.559-0.841 0.119-0.027 0.243-0.036 0.364-0.054C65.611 81.318 65.621 81.372 65.631 81.426z" fill="#ff5769" data-fill-palette-color="accent"></path><path fill-rule="evenodd" clip-rule="evenodd" d="M44.913 83.289c-1.744-0.25-3.499-0.436-5.228-0.76-6.602-1.23-12.641-3.782-17.982-7.884-4.446-3.413-8-7.559-10.145-12.798-1.127-2.755-1.751-5.611-1.436-8.611 0.153-1.453 0.517-2.843 1.405-4.04 1.021-1.377 2.398-1.835 4.061-1.358 1.625 0.468 2.977 1.436 4.318 2.41 3.084 2.243 6.149 4.512 9.235 6.751 0.597 0.434 1.252 0.786 1.841 1.249-0.658-0.332-1.319-0.661-1.976-0.996-2.666-1.357-5.312-2.758-8.01-4.048-0.95-0.456-2.006-0.749-3.046-0.94-2.829-0.517-4.246 1.267-4.625 3.479-0.419 2.452 0.105 4.788 1.01 7.053 1.531 3.833 3.972 7.034 6.996 9.795 6.155 5.619 13.456 8.838 21.624 10.209 0.66 0.113 1.324 0.203 1.986 0.305C44.931 83.166 44.922 83.228 44.913 83.289z" fill="#ff5769" data-fill-palette-color="accent"></path><path fill-rule="evenodd" clip-rule="evenodd" d="M26.441 78.456c-1.506-0.831-3.045-1.606-4.512-2.503-5.457-3.332-9.819-7.72-12.717-13.471-2.046-4.059-3.056-8.358-2.717-12.915 0.258-3.476 1.25-6.717 3.425-9.511 0.694-0.892 1.497-1.679 2.549-2.156 1.16-0.525 2.181-0.4 3.013 0.559 0.681 0.787 1.256 1.682 1.777 2.587 1.519 2.638 2.908 5.354 4.503 7.943 1.015 1.646 2.305 3.122 3.47 4.674 0.059 0.076 0.114 0.153 0.102 0.294-0.189-0.177-0.387-0.344-0.563-0.531-2.334-2.506-4.648-5.03-7.004-7.515-0.745-0.786-1.543-1.546-2.419-2.176-1.792-1.29-3.593-0.977-4.987 0.751-1.247 1.542-1.877 3.349-2.174 5.273-0.769 4.979 0.408 9.599 2.748 13.957 3.153 5.875 7.855 10.214 13.588 13.504 0.662 0.38 1.343 0.73 2.015 1.093C26.504 78.36 26.473 78.408 26.441 78.456z" fill="#ff5769" data-fill-palette-color="accent"></path><path fill-rule="evenodd" clip-rule="evenodd" d="M21.966 46.788c-0.077-0.734-0.177-1.468-0.226-2.205-0.283-4.324 0.528-8.38 3.043-11.989 2.307-3.308 5.52-5.363 9.319-6.547 3.768-1.173 7.627-1.387 11.538-1.024 6.396 0.592 12.308 2.747 18.021 5.549 0.541 0.266 1.083 0.533 1.594 0.866-1.375-0.504-2.749-1.01-4.123-1.514-3.6-1.318-7.243-2.485-11.039-3.105-5.445-0.89-10.847-0.888-16.077 1.124-6.586 2.533-10.511 7.299-11.675 14.286-0.126 0.754-0.19 1.524-0.229 2.288-0.038 0.748-0.008 1.498-0.008 2.247C22.059 46.771 22.012 46.78 21.966 46.788z" fill="#ff5769" data-fill-palette-color="accent"></path><path fill-rule="evenodd" clip-rule="evenodd" d="M75.267 38.73c-0.522-0.592-1.046-1.183-1.566-1.775-6.062-6.909-13.469-11.91-21.917-15.434-1.429-0.596-2.843-1.229-4.243-1.888-0.509-0.24-0.994-0.566-1.425-0.93-0.544-0.461-0.485-1.019 0.186-1.306 0.727-0.311 1.517-0.614 2.291-0.645 2.044-0.083 4.094-0.017 6.143-0.007 0.06 0 0.121 0.035 0.307 0.091-0.725 0.07-1.323 0.093-1.905 0.194-0.497 0.086-1.1 0.137-1.261 0.73-0.161 0.594 0.304 0.986 0.719 1.269 1.542 1.054 3.09 2.103 4.682 3.078 4.7 2.877 9.134 6.088 12.935 10.112 1.816 1.923 3.463 3.979 4.943 6.168 0.065 0.097 0.118 0.201 0.177 0.302C75.309 38.703 75.287 38.717 75.267 38.73z" fill="#ff5769" data-fill-palette-color="accent"></path><path fill-rule="evenodd" clip-rule="evenodd" d="M81.998 26.127c-0.353-0.185-0.695-0.394-1.062-0.549-0.423-0.179-0.858-0.351-1.305-0.456-0.975-0.229-1.585 0.214-1.502 1.216 0.092 1.074 0.342 2.138 0.565 3.197 0.522 2.47 1.252 4.911 1.576 7.405 0.924 7.096-1.089 13.205-6.565 18.001 0.246-0.251 0.496-0.496 0.736-0.754 0.257-0.271 0.516-0.544 0.755-0.83 3.028-3.667 4.252-7.914 4.035-12.619-0.187-3.998-1.443-7.711-2.998-11.348-0.616-1.438-1.203-2.891-1.774-4.347-0.142-0.359-0.211-0.757-0.251-1.143-0.082-0.8 0.356-1.286 1.159-1.227 0.508 0.037 1.024 0.157 1.503 0.334C78.772 23.713 80.395 24.906 81.998 26.127z" fill="#ff5769" data-fill-palette-color="accent"></path><path fill-rule="evenodd" clip-rule="evenodd" d="M77.751 43.611c-1.376-4.173-3.517-7.787-6.17-11.111-2.526-3.166-5.467-5.913-8.606-8.458-1.51-1.224-3.026-2.438-4.517-3.685-0.447-0.374-0.858-0.811-1.211-1.275-0.618-0.814-0.389-1.431 0.615-1.609 0.625-0.11 1.289-0.171 1.911-0.083 1.462 0.206 2.908 0.513 4.36 0.782 0.079 0.015 0.153 0.057 0.339 0.129-0.69 0-1.262-0.045-1.824 0.01-0.904 0.089-1.205 0.626-0.729 1.407 0.422 0.693 0.935 1.348 1.49 1.943 2.08 2.229 4.267 4.362 6.28 6.65 3.594 4.081 6.42 8.621 7.827 13.942 0.095 0.361 0.172 0.726 0.251 1.09C77.779 43.394 77.763 43.448 77.751 43.611z" fill="#ff5769" data-fill-palette-color="accent"></path><path fill-rule="evenodd" clip-rule="evenodd" d="M77.906 48.028c0.035-0.298 0.076-0.596 0.104-0.896 0.42-4.531-0.779-8.716-2.741-12.735-1.65-3.385-3.87-6.395-6.187-9.341-0.781-0.994-1.548-2.003-2.271-3.039-0.312-0.446-0.549-0.96-0.73-1.476-0.209-0.586 0.073-1.078 0.688-1.132 0.628-0.055 1.303-0.066 1.896 0.108 1.624 0.477 3.216 1.061 4.776 1.704-0.678-0.115-1.353-0.292-2.035-0.33-0.942-0.053-1.365 0.466-1.023 1.356 0.414 1.072 0.931 2.117 1.513 3.108 1.677 2.856 3.42 5.674 4.663 8.761 1.331 3.308 2.156 6.718 1.961 10.309-0.065 1.213-0.284 2.418-0.435 3.626C78.026 48.045 77.966 48.037 77.906 48.028z" fill="#ff5769" data-fill-palette-color="accent"></path><path fill-rule="evenodd" clip-rule="evenodd" d="M22.331 43.36c0.306-1.013 0.555-2.047 0.925-3.036 2.283-6.102 6.735-9.877 12.841-11.822 3.4-1.083 6.903-1.393 10.457-1.234 3.721 0.167 7.351 0.881 10.954 1.77 0.095 0.024 0.186 0.074 0.394 0.159-1.729-0.234-3.329-0.464-4.934-0.667-5.219-0.657-10.42-0.796-15.543 0.669-7.35 2.103-12.439 6.627-14.863 13.977-0.026 0.077-0.053 0.153-0.079 0.229C22.432 43.392 22.381 43.375 22.331 43.36z" fill="#ff5769" data-fill-palette-color="accent"></path><path fill-rule="evenodd" clip-rule="evenodd" d="M48.016 28.454c-2.662 0.242-5.287 0.608-7.878 1.205-5.475 1.26-10.307 3.687-14.169 7.856-0.308 0.333-0.6 0.678-0.9 1.017-0.034-0.029-0.069-0.058-0.104-0.087 0.527-0.634 1.031-1.288 1.584-1.898 3.133-3.454 7.043-5.619 11.497-6.861 3.181-0.888 6.44-1.188 9.727-1.261C47.854 28.424 47.935 28.444 48.016 28.454z" fill="#ff5769" data-fill-palette-color="accent"></path><path fill-rule="evenodd" clip-rule="evenodd" d="M14.697 28.899c-0.656 0.67-1.311 1.341-2.005 2.051 0.717-0.694 1.396-1.35 2.074-2.006C14.743 28.929 14.719 28.915 14.697 28.899z" fill="#ff5769" data-fill-palette-color="accent"></path></g></g></svg></g></svg></g></svg></g><defs></defs><mask id="57e67731-e7cc-41eb-9b71-48a04aca30ff"><g id="SvgjsG3440"><svg viewBox="0 0 395.52 91.88467462882744" height="91.88467462882744" width="395.52"><g><svg viewBox="0 0 599.5433335203641 139.28206949433965" height="91.88467462882744" width="395.52"><g transform="matrix(1,0,0,1,204.02333352036408,35.126317766037744)"><svg viewBox="0 0 395.52 69.02943396226416" height="69.02943396226416" width="395.52"><g id="SvgjsG3439"><svg viewBox="0 0 395.52 69.02943396226416" height="69.02943396226416" width="395.52" id="SvgjsSvg3438"><g><svg viewBox="0 0 395.52 69.02943396226416" height="69.02943396226416" width="395.52"><g transform="matrix(1,0,0,1,0,0)"><svg width="395.52" viewBox="1.35 -36.3 211.98000000000002 37" height="69.02943396226416" data-palette-color="url(#df532342-990c-4432-a114-0982681b06ea)"><path d="M9.6 0.5Q7.1 0.5 4.9 0.2L4.9 0.2Q2.6-0.1 1.35-0.5L1.35-0.5 6-36.3 8.9-36.3 6.95-21.7Q8.4-23.6 10.45-24.5 12.5-25.4 14.7-25.4L14.7-25.4Q18.85-25.4 21.23-22.53 23.6-19.65 23.6-14.85L23.6-14.85Q23.6-13.65 23.45-12.3L23.45-12.3Q22.7-6.7 19.25-3.1 15.8 0.5 9.6 0.5L9.6 0.5ZM9.6-2.2Q14.7-2.2 17.32-5.08 19.95-7.95 20.55-12.55L20.55-12.55Q20.7-13.85 20.7-14.9L20.7-14.9Q20.7-18.6 19-20.65 17.3-22.7 14.5-22.7L14.5-22.7Q13.2-22.7 11.95-22.25 10.7-21.8 9.65-21.05L9.65-21.05Q6.95-19.45 6.3-16.3L6.3-16.3 4.45-2.65 6.95-2.35Q8.15-2.2 9.6-2.2L9.6-2.2ZM38.15 0.5Q35 0.5 32.65-0.85 30.3-2.2 29.02-4.67 27.75-7.15 27.75-10.35L27.75-10.35Q27.75-11.4 27.9-12.6L27.9-12.6Q28.35-16.35 30.25-19.28 32.15-22.2 35.02-23.85 37.9-25.5 41.3-25.5L41.3-25.5Q44.4-25.5 46.75-24.1 49.1-22.7 50.4-20.23 51.7-17.75 51.7-14.5L51.7-14.5Q51.7-13.5 51.55-12.35L51.55-12.35Q51.05-8.6 49.17-5.68 47.3-2.75 44.42-1.13 41.55 0.5 38.15 0.5L38.15 0.5ZM38.25-2.2Q42.3-2.2 45.17-5.1 48.05-8 48.7-12.65L48.7-12.65Q48.85-13.65 48.85-14.55L48.85-14.55Q48.85-18.3 46.8-20.55 44.75-22.8 41.25-22.8L41.25-22.8Q38.55-22.8 36.3-21.45 34.05-20.1 32.6-17.73 31.15-15.35 30.75-12.3L30.75-12.3Q30.6-11.35 30.6-10.4L30.6-10.4Q30.6-6.65 32.65-4.42 34.7-2.2 38.25-2.2L38.25-2.2ZM66.34 0.5Q63.2 0.5 60.84-0.85 58.5-2.2 57.22-4.67 55.95-7.15 55.95-10.35L55.95-10.35Q55.95-11.4 56.09-12.6L56.09-12.6Q56.55-16.35 58.45-19.28 60.34-22.2 63.22-23.85 66.09-25.5 69.5-25.5L69.5-25.5Q72.59-25.5 74.95-24.1 77.3-22.7 78.59-20.23 79.9-17.75 79.9-14.5L79.9-14.5Q79.9-13.5 79.75-12.35L79.75-12.35Q79.25-8.6 77.37-5.68 75.5-2.75 72.62-1.13 69.75 0.5 66.34 0.5L66.34 0.5ZM66.45-2.2Q70.5-2.2 73.37-5.1 76.25-8 76.9-12.65L76.9-12.65Q77.05-13.65 77.05-14.55L77.05-14.55Q77.05-18.3 75-20.55 72.95-22.8 69.45-22.8L69.45-22.8Q66.75-22.8 64.5-21.45 62.25-20.1 60.8-17.73 59.34-15.35 58.95-12.3L58.95-12.3Q58.8-11.35 58.8-10.4L58.8-10.4Q58.8-6.65 60.84-4.42 62.9-2.2 66.45-2.2L66.45-2.2ZM96.39-13.5L103.99 0 100.89 0 94.39-11.3Q93.54-12.5 91.04-12.5L91.04-12.5 88.79-12.5 87.14 0 84.24 0 89.04-36.3 91.94-36.3 89.19-15.2 90.84-15.2Q92.39-15.2 93.47-15.33 94.54-15.45 95.34-15.85L95.34-15.85Q97.14-16.7 98.67-18.65 100.19-20.6 101.12-22.58 102.04-24.55 102.14-25.3L102.14-25.3 104.79-25.1Q104.54-23.4 103.07-20.8 101.59-18.2 99.72-16.07 97.84-13.95 96.39-13.5L96.39-13.5ZM124.64-34.2Q128.44-34.2 130.62-31.78 132.79-29.35 132.79-25.35L132.79-25.35Q132.79-24.4 132.64-23.35L132.64-23.35Q131.99-18.25 128.49-15.48 124.99-12.7 118.69-12.7L118.69-12.7Q116.09-12.7 114.29-12.8L114.29-12.8 112.54 0.05 109.64 0.05 114.14-34.2 124.64-34.2ZM119.34-15.5Q123.89-15.5 126.57-17.68 129.24-19.85 129.79-23.8L129.79-23.8Q129.89-24.9 129.89-25.3L129.89-25.3Q129.89-28.25 128.27-29.83 126.64-31.4 123.74-31.4L123.74-31.4 116.69-31.4 114.54-15.65 116.34-15.6Q118.54-15.5 119.34-15.5L119.34-15.5ZM144.54 0.5Q141.39 0.5 139.04-0.85 136.69-2.2 135.41-4.67 134.14-7.15 134.14-10.35L134.14-10.35Q134.14-11.4 134.29-12.6L134.29-12.6Q134.74-16.35 136.64-19.28 138.54-22.2 141.41-23.85 144.29-25.5 147.69-25.5L147.69-25.5Q150.79-25.5 153.14-24.1 155.49-22.7 156.79-20.23 158.09-17.75 158.09-14.5L158.09-14.5Q158.09-13.5 157.94-12.35L157.94-12.35Q157.44-8.6 155.56-5.68 153.69-2.75 150.81-1.13 147.94 0.5 144.54 0.5L144.54 0.5ZM144.64-2.2Q148.69-2.2 151.56-5.1 154.44-8 155.09-12.65L155.09-12.65Q155.24-13.65 155.24-14.55L155.24-14.55Q155.24-18.3 153.19-20.55 151.14-22.8 147.64-22.8L147.64-22.8Q144.94-22.8 142.69-21.45 140.44-20.1 138.99-17.73 137.54-15.35 137.14-12.3L137.14-12.3Q136.99-11.35 136.99-10.4L136.99-10.4Q136.99-6.65 139.04-4.42 141.09-2.2 144.64-2.2L144.64-2.2ZM162.44 0L165.74-25.05 168.63-25.05 165.34 0 162.44 0ZM167.63-28.25Q166.84-28.25 166.28-28.8 165.74-29.35 165.74-30.15L165.74-30.15Q165.74-31.15 166.38-31.83 167.03-32.5 167.94-32.5L167.94-32.5Q168.78-32.5 169.34-31.95 169.88-31.4 169.88-30.55L169.88-30.55Q169.88-29.6 169.21-28.93 168.53-28.25 167.63-28.25L167.63-28.25ZM176.03-17.75Q176.18-18.65 176.18-19.55L176.18-19.55Q176.18-22.05 174.83-23.6L174.83-23.6 176.83-25.35Q177.83-24.55 178.36-23.38 178.88-22.2 178.93-20.9L178.93-20.9Q180.88-23.25 183.01-24.38 185.13-25.5 187.88-25.5L187.88-25.5Q191.23-25.5 193.11-23.8 194.98-22.1 194.98-18.9L194.98-18.9Q194.98-17.85 194.88-17.25L194.88-17.25 192.48 0 189.63 0 191.93-16.9Q192.03-18 192.03-18.4L192.03-18.4Q192.03-22.8 187.53-22.8L187.53-22.8Q185.03-22.8 183.13-21.55 181.23-20.3 178.98-17.65L178.98-17.65 176.58 0 173.68 0 176.03-17.75ZM206.48 0.7Q203.43 0.7 201.88-0.75 200.33-2.2 200.33-5.25L200.33-5.25Q200.33-6.2 200.48-7.3L200.48-7.3 203.63-31.25 206.53-31.25 205.73-25 213.33-25 212.98-22.3 205.33-22.3 203.33-7.1Q203.23-6 203.23-5.65L203.23-5.65Q203.23-3.4 204.16-2.7 205.08-2 206.53-2L206.53-2Q207.53-2 208.25-2.15 208.98-2.3 209.88-2.8L209.88-2.8 211.03-0.4Q209.18 0.7 206.48 0.7L206.48 0.7Z" opacity="1" transform="matrix(1,0,0,1,0,0)" fill="white" class="wordmark-text-0" id="SvgjsPath3437"></path></svg></g></svg></g></svg></g></svg></g><g><svg viewBox="0 0 187.72714086828861 139.28206949433965" height="139.28206949433965" width="187.72714086828861"><g><svg xmlns="http://www.w3.org/2000/svg" xmlns:xlink="http://www.w3.org/1999/xlink" version="1.1" x="0" y="0" viewBox="5.132408955589326 16.710673764624296 89.73559104441067 66.5783262353757" enable-background="new 0 0 100 100" xml:space="preserve" height="139.28206949433965" width="187.72714086828861" class="icon-icon-0" data-fill-palette-color="accent" id="SvgjsSvg3436"><g fill="black"><g fill="black"><path fill-rule="evenodd" clip-rule="evenodd" d="M74.326 68.963c-0.798-0.145-1.9-0.323-2.992-0.555-0.341-0.071-0.667-0.255-0.974-0.432-1.325-0.767-1.746-1.954-0.93-3.247 0.693-1.103 1.573-2.117 2.501-3.037 1.594-1.582 3.297-3.057 4.94-4.588 4.552-4.241 7.812-9.313 9.824-15.2 0.328-0.958 0.706-1.908 1.158-2.812 0.898-1.788 2-1.927 3.344-0.457 1.32 1.445 2.083 3.202 2.522 5.069 1.868 7.964-0.336 14.692-6.371 20.143-2.905 2.626-6.373 4.208-10.25 4.836C76.294 68.814 75.471 68.851 74.326 68.963z" fill="black"></path><path fill-rule="evenodd" clip-rule="evenodd" d="M92.634 38.514c-0.653-1.049-1.292-2.153-2.012-3.201-0.739-1.076-1.61-2.049-2.715-2.778-1.506-0.995-2.472-0.662-2.837 1.085-0.302 1.443-0.484 2.917-0.636 4.387-0.803 7.851-4.379 14.12-10.652 18.884-3.111 2.361-6.535 4.188-9.985 5.977-1.898 0.982-3.829 1.915-5.486 3.297-0.393 0.328-0.756 0.713-1.059 1.125-0.763 1.045-0.708 2.198 0.128 3.191 1.074 1.28 2.537 1.934 4.071 2.445 2.922 0.974 5.939 1.181 8.983 0.946 4.886-0.38 9.429-1.859 13.513-4.59 5.735-3.835 9.416-9.074 10.688-15.92 0.022-0.119 0.062-0.233 0.094-0.349 0.047 0.01 0.093 0.02 0.139 0.029-0.181 0.872-0.324 1.753-0.547 2.613-2.235 8.58-7.57 14.593-15.453 18.412-5.266 2.551-10.866 3.581-16.712 3.264-3.956-0.216-7.766-1.03-11.323-2.828-1.505-0.76-2.909-1.677-3.968-3.024-0.655-0.834-1.134-1.74-0.875-2.858 0.202-0.87 0.787-1.468 1.482-1.96 1.446-1.021 3.11-1.567 4.779-2.079 3.403-1.045 6.838-1.997 10.215-3.117 3.978-1.317 7.716-3.146 11.027-5.763 4.653-3.679 7.529-8.396 8.347-14.309 0.316-2.291 0.267-4.588 0.09-6.89-0.128-1.651-0.202-3.308-0.271-4.962-0.012-0.289 0.091-0.601 0.205-0.875 0.252-0.599 0.808-0.91 1.45-0.637 0.891 0.377 1.806 0.802 2.549 1.404 3.007 2.436 5.117 5.572 6.777 9.031C92.651 38.49 92.632 38.53 92.634 38.514z" fill="black"></path><path fill-rule="evenodd" clip-rule="evenodd" d="M43.539 16.952c-1.064 0.275-2.123 0.514-3.159 0.832-0.556 0.169-1.102 0.425-1.59 0.738-0.281 0.179-0.594 0.55-0.597 0.837-0.001 0.221 0.426 0.553 0.723 0.647 0.964 0.307 1.947 0.575 2.939 0.775 4.686 0.946 9.3 2.127 13.712 4.012 5.238 2.238 9.98 5.27 14.37 8.877 0.411 0.338 0.821 0.678 1.19 1.075-1.092-0.709-2.184-1.42-3.275-2.129-4.513-2.929-9.213-5.479-14.349-7.164-5.083-1.667-10.277-2.512-15.63-2.206-2.663 0.152-5.274 0.613-7.754 1.648-4.807 2.005-7.589 5.706-8.757 10.675-1.146 4.878-0.354 9.594 1.414 14.196 0.062 0.159 0.12 0.32 0.18 0.48-0.048 0.021-0.096 0.042-0.143 0.062-0.599-1.321-1.237-2.628-1.789-3.97-1.365-3.326-2.043-6.811-2.353-10.381-0.086-1.01-0.214-2.024-0.43-3.013-0.267-1.221-0.986-1.602-2.189-1.245-1.295 0.385-2.363 1.169-3.342 2.059-3.771 3.432-5.965 7.731-6.772 12.729-1.026 6.351 0.45 12.201 3.736 17.652 0.108 0.182 0.216 0.36 0.263 0.589-0.053-0.064-0.112-0.125-0.158-0.194-2.564-3.895-4.199-8.132-4.564-12.798-0.51-6.521 1.353-12.361 5.282-17.558 2.842-3.758 6.466-6.62 10.478-9.019 4.056-2.426 8.189-4.7 12.683-6.241 3.086-1.059 6.281-1.576 9.505-1.965C43.285 16.939 43.411 16.952 43.539 16.952z" fill="black"></path><path fill-rule="evenodd" clip-rule="evenodd" d="M61.55 61.343c-2.16 0.432-4.308 0.96-6.484 1.273-3.546 0.512-7.112 0.87-10.667 1.316-1.714 0.217-3.426 0.478-5.038 1.151-2.632 1.103-3.239 3.024-1.707 5.444 1.121 1.772 2.715 3.062 4.453 4.177 3.482 2.239 7.323 3.559 11.365 4.323 3.829 0.723 7.688 0.867 11.56 0.423 6.403-0.734 12.298-2.837 17.522-6.675 0.137-0.102 0.28-0.188 0.421-0.283 0.027 0.041 0.057 0.079 0.085 0.119-0.994 0.725-1.971 1.477-2.987 2.169-4.866 3.32-10.242 5.348-16.062 6.188-8.425 1.216-16.525 0.121-24.223-3.575-3.16-1.518-6.029-3.465-8.351-6.133-1.098-1.261-2.023-2.628-2.404-4.294-0.399-1.745 0.25-3.111 1.865-3.873 1.1-0.519 2.284-0.745 3.479-0.742 2.764 0.002 5.529 0.042 8.29 0.152 4.246 0.17 8.493 0.326 12.723-0.194 2.06-0.255 4.099-0.687 6.146-1.039C61.541 61.295 61.546 61.319 61.55 61.343z" fill="black"></path><path fill-rule="evenodd" clip-rule="evenodd" d="M65.631 81.426c-1.752 0.377-3.496 0.797-5.258 1.123-4.186 0.775-8.406 0.904-12.628 0.417-8.404-0.967-16.037-3.862-22.574-9.342-3.041-2.547-5.567-5.528-7.092-9.246-0.675-1.647-1.105-3.351-0.79-5.159 0.323-1.852 1.667-3.017 3.546-3.101 1.593-0.071 3.128 0.24 4.623 0.725 3.147 1.024 6.268 2.136 9.419 3.148 2.197 0.705 4.428 1.307 6.489 1.908-1.008-0.179-2.186-0.391-3.364-0.598-2.822-0.501-5.641-1.03-8.47-1.488-1.357-0.22-2.733-0.254-4.098 0.041-2.114 0.458-3.188 2.023-2.868 4.176 0.316 2.126 1.326 3.934 2.604 5.604 2.893 3.78 6.67 6.446 10.891 8.527 4.302 2.122 8.855 3.419 13.616 3.999 5.237 0.636 10.424 0.396 15.559-0.841 0.119-0.027 0.243-0.036 0.364-0.054C65.611 81.318 65.621 81.372 65.631 81.426z" fill="black"></path><path fill-rule="evenodd" clip-rule="evenodd" d="M44.913 83.289c-1.744-0.25-3.499-0.436-5.228-0.76-6.602-1.23-12.641-3.782-17.982-7.884-4.446-3.413-8-7.559-10.145-12.798-1.127-2.755-1.751-5.611-1.436-8.611 0.153-1.453 0.517-2.843 1.405-4.04 1.021-1.377 2.398-1.835 4.061-1.358 1.625 0.468 2.977 1.436 4.318 2.41 3.084 2.243 6.149 4.512 9.235 6.751 0.597 0.434 1.252 0.786 1.841 1.249-0.658-0.332-1.319-0.661-1.976-0.996-2.666-1.357-5.312-2.758-8.01-4.048-0.95-0.456-2.006-0.749-3.046-0.94-2.829-0.517-4.246 1.267-4.625 3.479-0.419 2.452 0.105 4.788 1.01 7.053 1.531 3.833 3.972 7.034 6.996 9.795 6.155 5.619 13.456 8.838 21.624 10.209 0.66 0.113 1.324 0.203 1.986 0.305C44.931 83.166 44.922 83.228 44.913 83.289z" fill="black"></path><path fill-rule="evenodd" clip-rule="evenodd" d="M26.441 78.456c-1.506-0.831-3.045-1.606-4.512-2.503-5.457-3.332-9.819-7.72-12.717-13.471-2.046-4.059-3.056-8.358-2.717-12.915 0.258-3.476 1.25-6.717 3.425-9.511 0.694-0.892 1.497-1.679 2.549-2.156 1.16-0.525 2.181-0.4 3.013 0.559 0.681 0.787 1.256 1.682 1.777 2.587 1.519 2.638 2.908 5.354 4.503 7.943 1.015 1.646 2.305 3.122 3.47 4.674 0.059 0.076 0.114 0.153 0.102 0.294-0.189-0.177-0.387-0.344-0.563-0.531-2.334-2.506-4.648-5.03-7.004-7.515-0.745-0.786-1.543-1.546-2.419-2.176-1.792-1.29-3.593-0.977-4.987 0.751-1.247 1.542-1.877 3.349-2.174 5.273-0.769 4.979 0.408 9.599 2.748 13.957 3.153 5.875 7.855 10.214 13.588 13.504 0.662 0.38 1.343 0.73 2.015 1.093C26.504 78.36 26.473 78.408 26.441 78.456z" fill="black"></path><path fill-rule="evenodd" clip-rule="evenodd" d="M21.966 46.788c-0.077-0.734-0.177-1.468-0.226-2.205-0.283-4.324 0.528-8.38 3.043-11.989 2.307-3.308 5.52-5.363 9.319-6.547 3.768-1.173 7.627-1.387 11.538-1.024 6.396 0.592 12.308 2.747 18.021 5.549 0.541 0.266 1.083 0.533 1.594 0.866-1.375-0.504-2.749-1.01-4.123-1.514-3.6-1.318-7.243-2.485-11.039-3.105-5.445-0.89-10.847-0.888-16.077 1.124-6.586 2.533-10.511 7.299-11.675 14.286-0.126 0.754-0.19 1.524-0.229 2.288-0.038 0.748-0.008 1.498-0.008 2.247C22.059 46.771 22.012 46.78 21.966 46.788z" fill="black"></path><path fill-rule="evenodd" clip-rule="evenodd" d="M75.267 38.73c-0.522-0.592-1.046-1.183-1.566-1.775-6.062-6.909-13.469-11.91-21.917-15.434-1.429-0.596-2.843-1.229-4.243-1.888-0.509-0.24-0.994-0.566-1.425-0.93-0.544-0.461-0.485-1.019 0.186-1.306 0.727-0.311 1.517-0.614 2.291-0.645 2.044-0.083 4.094-0.017 6.143-0.007 0.06 0 0.121 0.035 0.307 0.091-0.725 0.07-1.323 0.093-1.905 0.194-0.497 0.086-1.1 0.137-1.261 0.73-0.161 0.594 0.304 0.986 0.719 1.269 1.542 1.054 3.09 2.103 4.682 3.078 4.7 2.877 9.134 6.088 12.935 10.112 1.816 1.923 3.463 3.979 4.943 6.168 0.065 0.097 0.118 0.201 0.177 0.302C75.309 38.703 75.287 38.717 75.267 38.73z" fill="black"></path><path fill-rule="evenodd" clip-rule="evenodd" d="M81.998 26.127c-0.353-0.185-0.695-0.394-1.062-0.549-0.423-0.179-0.858-0.351-1.305-0.456-0.975-0.229-1.585 0.214-1.502 1.216 0.092 1.074 0.342 2.138 0.565 3.197 0.522 2.47 1.252 4.911 1.576 7.405 0.924 7.096-1.089 13.205-6.565 18.001 0.246-0.251 0.496-0.496 0.736-0.754 0.257-0.271 0.516-0.544 0.755-0.83 3.028-3.667 4.252-7.914 4.035-12.619-0.187-3.998-1.443-7.711-2.998-11.348-0.616-1.438-1.203-2.891-1.774-4.347-0.142-0.359-0.211-0.757-0.251-1.143-0.082-0.8 0.356-1.286 1.159-1.227 0.508 0.037 1.024 0.157 1.503 0.334C78.772 23.713 80.395 24.906 81.998 26.127z" fill="black"></path><path fill-rule="evenodd" clip-rule="evenodd" d="M77.751 43.611c-1.376-4.173-3.517-7.787-6.17-11.111-2.526-3.166-5.467-5.913-8.606-8.458-1.51-1.224-3.026-2.438-4.517-3.685-0.447-0.374-0.858-0.811-1.211-1.275-0.618-0.814-0.389-1.431 0.615-1.609 0.625-0.11 1.289-0.171 1.911-0.083 1.462 0.206 2.908 0.513 4.36 0.782 0.079 0.015 0.153 0.057 0.339 0.129-0.69 0-1.262-0.045-1.824 0.01-0.904 0.089-1.205 0.626-0.729 1.407 0.422 0.693 0.935 1.348 1.49 1.943 2.08 2.229 4.267 4.362 6.28 6.65 3.594 4.081 6.42 8.621 7.827 13.942 0.095 0.361 0.172 0.726 0.251 1.09C77.779 43.394 77.763 43.448 77.751 43.611z" fill="black"></path><path fill-rule="evenodd" clip-rule="evenodd" d="M77.906 48.028c0.035-0.298 0.076-0.596 0.104-0.896 0.42-4.531-0.779-8.716-2.741-12.735-1.65-3.385-3.87-6.395-6.187-9.341-0.781-0.994-1.548-2.003-2.271-3.039-0.312-0.446-0.549-0.96-0.73-1.476-0.209-0.586 0.073-1.078 0.688-1.132 0.628-0.055 1.303-0.066 1.896 0.108 1.624 0.477 3.216 1.061 4.776 1.704-0.678-0.115-1.353-0.292-2.035-0.33-0.942-0.053-1.365 0.466-1.023 1.356 0.414 1.072 0.931 2.117 1.513 3.108 1.677 2.856 3.42 5.674 4.663 8.761 1.331 3.308 2.156 6.718 1.961 10.309-0.065 1.213-0.284 2.418-0.435 3.626C78.026 48.045 77.966 48.037 77.906 48.028z" fill="black"></path><path fill-rule="evenodd" clip-rule="evenodd" d="M22.331 43.36c0.306-1.013 0.555-2.047 0.925-3.036 2.283-6.102 6.735-9.877 12.841-11.822 3.4-1.083 6.903-1.393 10.457-1.234 3.721 0.167 7.351 0.881 10.954 1.77 0.095 0.024 0.186 0.074 0.394 0.159-1.729-0.234-3.329-0.464-4.934-0.667-5.219-0.657-10.42-0.796-15.543 0.669-7.35 2.103-12.439 6.627-14.863 13.977-0.026 0.077-0.053 0.153-0.079 0.229C22.432 43.392 22.381 43.375 22.331 43.36z" fill="black"></path><path fill-rule="evenodd" clip-rule="evenodd" d="M48.016 28.454c-2.662 0.242-5.287 0.608-7.878 1.205-5.475 1.26-10.307 3.687-14.169 7.856-0.308 0.333-0.6 0.678-0.9 1.017-0.034-0.029-0.069-0.058-0.104-0.087 0.527-0.634 1.031-1.288 1.584-1.898 3.133-3.454 7.043-5.619 11.497-6.861 3.181-0.888 6.44-1.188 9.727-1.261C47.854 28.424 47.935 28.444 48.016 28.454z" fill="black"></path><path fill-rule="evenodd" clip-rule="evenodd" d="M14.697 28.899c-0.656 0.67-1.311 1.341-2.005 2.051 0.717-0.694 1.396-1.35 2.074-2.006C14.743 28.929 14.719 28.915 14.697 28.899z" fill="black"></path></g></g></svg></g></svg></g></svg></g><defs><mask></mask></defs></svg><rect width="395.52" height="91.88467462882744" fill="black" stroke="none" visibility="hidden"></rect></g></mask><linearGradient x1="0" x2="1" y1="0.548" y2="0.55" id="df532342-990c-4432-a114-0982681b06ea"><stop stop-color="#ff6cab" offset="0"></stop><stop stop-color="#7366ff" offset="1"></stop></linearGradient><rect width="395.52" height="91.88467462882744" fill="url(#df532342-990c-4432-a114-0982681b06ea)" mask="url(#57e67731-e7cc-41eb-9b71-48a04aca30ff)" data-fill-palette-color="primary"></rect></svg><rect width="395.52" height="91.88467462882744" fill="none" stroke="none" visibility="hidden"></rect></g></svg></g></svg>